<?xml version="1.0" encoding="UTF-8"?>
<svg id="Layer_1" xmlns="http://www.w3.org/2000/svg" version="1.1" viewBox="0 0 100 100">
  <!-- Generator: Adobe Illustrator 29.8.3, SVG Export Plug-In . SVG Version: 2.1.1 Build 3)  -->
  <defs>
    <style>
      .st0 {
        fill: #ff4d93;
      }

      .st1 {
        stroke-linecap: round;
      }

      .st1, .st2 {
        fill: none;
        stroke: #f0ce39;
        stroke-miterlimit: 10;
        stroke-width: 6px;
      }

      .st3 {
        display: none;
      }
    </style>
  </defs>
  <g id="Layer_11" data-name="Layer_1" class="st3">
    <path class="st0" d="M81.44,18.49c-3.83-3.83-9.25-4.89-13.23-2.58-5.38,3.15-22.3-6.83-40.31,11.22-18.05,18.05-8.08,34.92-11.22,40.31-2.31,3.94-1.25,9.4,2.58,13.23,3.83,3.83,9.25,4.89,13.23,2.58,5.38-3.15,22.3,6.83,40.31-11.22,18.05-18.05,8.08-34.92,11.22-40.31,2.31-3.94,1.25-9.4-2.58-13.23h0ZM78.41,28.39c-5.27,9.06,6.22,22.56-10.2,38.98s-29.88,4.93-38.98,10.2c-3.07,1.78-8.72-3.72-6.86-6.86,5.27-9.06-6.22-22.56,10.2-38.98s29.88-4.93,38.98-10.2c3.11-1.82,8.72,3.72,6.86,6.86h0ZM55.28,29.6c.19,1.48-.87,2.84-2.35,3.03-7.47.95-18.5,11.94-19.41,19.41-.19,1.48-1.55,2.54-3.03,2.35-1.48-.19-2.54-1.55-2.35-3.03,1.25-9.97,14.18-22.9,24.15-24.15,1.48-.19,2.84.87,3.03,2.35h0s-.04.04-.04.04Z"/>
  </g>
  <g id="Layer_2">
    <path class="st2" d="M27.85,81.5c-2.27,0-4.64-1.07-6.5-2.92-2.84-2.84-3.73-6.89-2.12-9.63,1.43-2.44,1.15-5.54.8-9.46-.71-7.85-1.68-18.61,9.97-30.26,9.25-9.27,17.98-10.34,23.74-10.34,2.35,0,4.56.2,6.51.37,1.63.15,3.16.28,4.53.28s3.28-.11,4.93-1.08c.92-.54,1.98-.81,3.14-.81,2.27,0,4.64,1.07,6.5,2.92,2.84,2.84,3.73,6.89,2.12,9.63-1.43,2.44-1.15,5.54-.8,9.46.71,7.86,1.68,18.61-9.97,30.26-9.25,9.27-17.98,10.34-23.74,10.34h0c-2.35,0-4.56-.2-6.51-.37-1.63-.15-3.16-.28-4.53-.28s-3.28.11-4.93,1.08c-.92.54-1.98.81-3.14.81Z"/>
    <path class="st1" d="M54.45,29.56"/>
    <path class="st1" d="M30.7,51.7c.65-8.68,10-21.23,21.84-21.77"/>
  </g>
</svg>